<svg xmlns="http://www.w3.org/2000/svg" version="1.1" xmlns:xlink="http://www.w3.org/1999/xlink" xmlns:svgjs="http://svgjs.dev/svgjs" width="1500" height="1500" viewBox="0 0 1500 1500"><g transform="matrix(1,0,0,1,-0.21332335329316265,-0.21332335329350371)"><svg viewBox="0 0 334 334" data-background-color="#ee3e38" preserveAspectRatio="xMidYMid meet" height="1500" width="1500" xmlns="http://www.w3.org/2000/svg" xmlns:xlink="http://www.w3.org/1999/xlink"><g id="tight-bounds" transform="matrix(1,0,0,1,0.04749999999998522,0.04750000000001364)"><svg viewBox="0 0 333.90454557049503 333.90454557049503" height="333.90454557049503" width="333.90454557049503"><g><svg></svg></g><g><svg viewBox="0 0 333.90454557049503 333.90454557049503" height="333.90454557049503" width="333.90454557049503"><g><path d="M0 166.952c0-92.205 74.747-166.952 166.952-166.952 92.205 0 166.952 74.747 166.953 166.952 0 92.205-74.747 166.952-166.953 166.953-92.205 0-166.952-74.747-166.952-166.953zM166.952 316.63c82.665 0 149.677-67.013 149.678-149.678 0-82.665-67.013-149.677-149.678-149.677-82.665 0-149.677 67.013-149.677 149.677 0 82.665 67.013 149.677 149.677 149.678z" data-fill-palette-color="tertiary" fill="#ffffff" stroke="transparent"></path><ellipse rx="160.27418187383762" ry="160.27418187383762" cx="166.95227278524752" cy="166.95227278524752" fill="#ffffff" stroke="transparent" stroke-width="0" fill-opacity="1" data-fill-palette-color="tertiary"></ellipse></g><g transform="matrix(1,0,0,1,104.99378998601509,71.17305217166896)"><svg viewBox="0 0 123.91696559846487 191.55844122715712" height="191.55844122715712" width="123.91696559846487"><g><svg viewBox="0 0 123.91696559846487 191.55844122715712" height="191.55844122715712" width="123.91696559846487"><g><svg viewBox="0 0 123.91696559846487 191.55844122715712" height="191.55844122715712" width="123.91696559846487"><g id="textblocktransform"><svg viewBox="0 0 123.91696559846487 191.55844122715712" height="191.55844122715712" width="123.91696559846487" id="textblock"><g><svg viewBox="0 0 123.91696559846487 191.55844122715712" height="191.55844122715712" width="123.91696559846487"><g transform="matrix(1,0,0,1,0,0)"><svg width="123.91696559846487" viewBox="3 -34.55 22.35 34.55" height="191.55844122715712" data-palette-color="#ee3e38"><path d="M10.7-34.55Q15.05-34.55 18.23-33.23 21.4-31.9 23.38-28.13 25.35-24.35 25.35-17.45L25.35-17.45Q25.35-7.7 21.48-3.85 17.6 0 11.35 0L11.35 0 3 0 3-34.55 10.7-34.55ZM11.65-29.8L9.35-29.8 9.35-4.75 11.7-4.75Q13.95-4.75 15.48-5.8 17-6.85 17.88-9.65 18.75-12.45 18.75-17.45L18.75-17.45Q18.75-22.55 17.82-25.25 16.9-27.95 15.38-28.88 13.85-29.8 11.65-29.8L11.65-29.8Z" opacity="1" transform="matrix(1,0,0,1,0,0)" fill="#ee3e38" class="wordmark-text-0" data-fill-palette-color="quaternary" id="text-0"></path></svg></g></svg></g></svg></g></svg></g><g></g></svg></g></svg></g></svg></g><defs></defs></svg><rect width="333.90454557049503" height="333.90454557049503" fill="none" stroke="none" visibility="hidden"></rect></g></svg></g></svg>